<svg width="221" height="94" viewBox="0 0 221 94" fill="none" xmlns="http://www.w3.org/2000/svg">
<path d="M47.504 92.896C45.8827 92.896 44.6027 92.4267 43.664 91.488C42.7253 90.5493 42.256 89.2267 42.256 87.52V72.672H5.52C3.81333 72.672 2.448 72.288 1.424 71.52C0.485334 70.6667 0.0160003 69.472 0.0160003 67.936C0.0160003 66.9973 0.229334 66.0587 0.656 65.12C1.08267 64.096 1.85067 62.816 2.96 61.28L42 4.448C42.768 3.25333 43.6213 2.35733 44.56 1.75999C45.4987 1.16266 46.608 0.863998 47.888 0.863998C49.2533 0.863998 50.4053 1.29066 51.344 2.144C52.368 2.99733 52.88 4.36266 52.88 6.24V63.712H62.224C63.8453 63.712 65.0827 64.096 65.936 64.864C66.7893 65.632 67.216 66.7413 67.216 68.192C67.216 69.6427 66.7893 70.752 65.936 71.52C65.0827 72.288 63.8453 72.672 62.224 72.672H52.88V87.52C52.88 89.2267 52.4107 90.5493 51.472 91.488C50.5333 92.4267 49.2107 92.896 47.504 92.896ZM42.256 63.712V14.048H45.328L9.488 66.528V63.712H42.256ZM109.25 93.152C98.9247 93.152 91.074 89.184 85.698 81.248C80.322 73.312 77.634 61.8347 77.634 46.816C77.634 36.7467 78.8287 28.2987 81.218 21.472C83.6073 14.56 87.1487 9.35466 91.842 5.856C96.6207 2.35733 102.423 0.607994 109.25 0.607994C119.661 0.607994 127.511 4.53333 132.802 12.384C138.178 20.1493 140.866 31.584 140.866 46.688C140.866 56.7573 139.671 65.248 137.282 72.16C134.893 79.072 131.351 84.32 126.658 87.904C121.965 91.4027 116.162 93.152 109.25 93.152ZM109.25 84.064C116.418 84.064 121.709 81.0347 125.122 74.976C128.621 68.832 130.37 59.4027 130.37 46.688C130.37 33.888 128.621 24.544 125.122 18.656C121.709 12.6827 116.418 9.696 109.25 9.696C102.167 9.696 96.8767 12.6827 93.378 18.656C89.8793 24.6293 88.13 33.9733 88.13 46.688C88.13 59.4027 89.8793 68.832 93.378 74.976C96.8767 81.0347 102.167 84.064 109.25 84.064ZM201.204 92.896C199.583 92.896 198.303 92.4267 197.364 91.488C196.425 90.5493 195.956 89.2267 195.956 87.52V72.672H159.22C157.513 72.672 156.148 72.288 155.124 71.52C154.185 70.6667 153.716 69.472 153.716 67.936C153.716 66.9973 153.929 66.0587 154.356 65.12C154.783 64.096 155.551 62.816 156.66 61.28L195.7 4.448C196.468 3.25333 197.321 2.35733 198.26 1.75999C199.199 1.16266 200.308 0.863998 201.588 0.863998C202.953 0.863998 204.105 1.29066 205.044 2.144C206.068 2.99733 206.58 4.36266 206.58 6.24V63.712H215.924C217.545 63.712 218.783 64.096 219.636 64.864C220.489 65.632 220.916 66.7413 220.916 68.192C220.916 69.6427 220.489 70.752 219.636 71.52C218.783 72.288 217.545 72.672 215.924 72.672H206.58V87.52C206.58 89.2267 206.111 90.5493 205.172 91.488C204.233 92.4267 202.911 92.896 201.204 92.896ZM195.956 63.712V14.048H199.028L163.188 66.528V63.712H195.956Z" fill="url(#paint0_linear_2005_588)"/>
<defs>
<linearGradient id="paint0_linear_2005_588" x1="109.5" y1="-50" x2="109.5" y2="150" gradientUnits="userSpaceOnUse">
<stop stop-color="#467D33"/>
<stop offset="1" stop-color="#20786D"/>
</linearGradient>
</defs>
</svg>
