<svg width="20" height="20" viewBox="0 0 20 20" fill="none" xmlns="http://www.w3.org/2000/svg">
<path fill-rule="evenodd" clip-rule="evenodd" d="M2.84842 4.43245C3.65351 3.48056 4.8272 2.91675 6.25 2.91675C7.20266 2.91675 8.11479 3.43837 8.81542 3.96801C9.248 4.29499 9.65117 4.66475 10 5.01919C10.3488 4.66475 10.752 4.29499 11.1846 3.96801C11.8853 3.43837 12.7973 2.91675 13.75 2.91675C15.1983 2.91675 16.3718 3.54264 17.1655 4.53248C17.9453 5.50514 18.3333 6.79282 18.3333 8.12508C18.3333 9.328 17.7405 10.4824 16.9948 11.4767C16.2376 12.4863 15.2463 13.4317 14.2835 14.234C13.3164 15.0399 12.3533 15.7218 11.6341 16.2012C11.2738 16.4415 10.9728 16.6321 10.7609 16.7633C10.6549 16.8289 10.571 16.8797 10.513 16.9146C10.4839 16.932 10.4614 16.9454 10.4458 16.9547L10.4274 16.9655L10.4223 16.9685L10.4208 16.9694C10.4206 16.9695 10.4199 16.9699 10 16.2501C9.58009 16.9699 9.57992 16.9698 9.57975 16.9697L9.57767 16.9684L9.57242 16.9654L9.55409 16.9546C9.53834 16.9452 9.51575 16.9318 9.48667 16.9143C9.4285 16.8794 9.34442 16.8284 9.23834 16.7625C9.02609 16.6307 8.72484 16.4392 8.36409 16.1975C7.64426 15.7149 6.68028 15.0271 5.71236 14.2097C4.74856 13.3959 3.75666 12.4335 2.99936 11.3986C2.25138 10.3764 1.66667 9.19442 1.66667 7.95876C1.66667 6.62449 2.05616 5.36918 2.84842 4.43245ZM10 16.2501L9.57975 16.9697L10 17.2148L10.4199 16.9699L10 16.2501ZM10.0004 15.2735C10.1876 15.1562 10.4293 15.0014 10.7097 14.8145C11.3967 14.3565 12.3086 13.7102 13.2165 12.9537C14.1288 12.1934 15.0124 11.342 15.6615 10.4767C16.322 9.59583 16.6667 8.79716 16.6667 8.12508C16.6667 7.10048 16.3668 6.20066 15.8652 5.57504C15.3773 4.96659 14.6759 4.58341 13.75 4.58341C13.3614 4.58341 12.8187 4.82206 12.1897 5.29754C11.5889 5.75166 11.0301 6.32915 10.6325 6.79266L10 7.53L9.36751 6.79266C8.96992 6.32915 8.41109 5.75166 7.81037 5.29754C7.18137 4.82206 6.6386 4.58341 6.25 4.58341C5.29864 4.58341 4.59734 4.9455 4.12096 5.50874C3.63177 6.08714 3.33334 6.93617 3.33334 7.95876C3.33334 8.68125 3.68613 9.51475 4.3444 10.4143C4.99335 11.3012 5.87645 12.1669 6.78765 12.9363C7.69473 13.7023 8.60576 14.353 9.29217 14.8131C9.57217 15.0008 9.8135 15.156 10.0004 15.2735Z" fill="black"/>
</svg>
