<svg width="24" height="24" viewBox="0 0 24 24" fill="none" xmlns="http://www.w3.org/2000/svg">
<path d="M11.8547 23.7094C18.4018 23.7094 23.7094 18.4018 23.7094 11.8547C23.7094 5.30752 18.4018 0 11.8547 0C5.30752 0 0 5.30752 0 11.8547C0 18.4018 5.30752 23.7094 11.8547 23.7094Z" fill="url(#paint0_linear_2032_7006)"/>
<path d="M9.68133 17.288C9.29724 17.288 9.36257 17.1431 9.23006 16.7772L8.1007 13.0607L16.7941 7.90308" fill="#C8DAEA"/>
<path d="M9.68133 17.2881C9.9777 17.2881 10.1086 17.1527 10.2741 16.9918L11.8547 15.4549L9.88312 14.266" fill="#A9C9DD"/>
<path d="M9.88286 14.2662L14.6603 17.7958C15.2056 18.0966 15.5989 17.9409 15.7349 17.2897L17.6796 8.12576C17.8787 7.32755 17.3753 6.96532 16.8537 7.20215L5.43445 11.6052C4.65494 11.9179 4.65968 12.3529 5.29246 12.5465L8.22294 13.4612L15.007 9.18109C15.3273 8.98694 15.6213 9.09126 15.38 9.30544L9.88286 14.2662Z" fill="#FCFDFF"/>
<defs>
<linearGradient id="paint0_linear_2032_7006" x1="15.3294" y1="19.9578" x2="9.40208" y2="6.1352" gradientUnits="userSpaceOnUse">
<stop stop-color="#37AEE2"/>
<stop offset="1" stop-color="#1E96C8"/>
</linearGradient>
</defs>
</svg>
