<svg width="20" height="20" viewBox="0 0 20 20" fill="none" xmlns="http://www.w3.org/2000/svg">
<path fill-rule="evenodd" clip-rule="evenodd" d="M2.84842 4.43233C3.65351 3.48044 4.8272 2.91663 6.25 2.91663C7.20266 2.91663 8.11479 3.43825 8.81542 3.96789C9.248 4.29487 9.65117 4.66463 10 5.01907C10.3488 4.66463 10.752 4.29487 11.1846 3.96789C11.8853 3.43825 12.7973 2.91663 13.75 2.91663C15.1983 2.91663 16.3718 3.54252 17.1655 4.53236C17.9453 5.50502 18.3333 6.7927 18.3333 8.12496C18.3333 9.32788 17.7405 10.4823 16.9948 11.4765C16.2376 12.4862 15.2463 13.4316 14.2835 14.2339C13.3164 15.0398 12.3533 15.7217 11.6341 16.2011C11.2738 16.4414 10.9728 16.632 10.7609 16.7632C10.6549 16.8288 10.571 16.8796 10.513 16.9145C10.4839 16.9319 10.4614 16.9453 10.4458 16.9545L10.4274 16.9654L10.4223 16.9684L10.4208 16.9693C10.4206 16.9694 10.4199 16.9698 10 16.25C9.58009 16.9698 9.57992 16.9697 9.57975 16.9695L9.57767 16.9683L9.57242 16.9653L9.55409 16.9545C9.53834 16.9451 9.51575 16.9317 9.48667 16.9142C9.4285 16.8793 9.34442 16.8283 9.23834 16.7624C9.02609 16.6306 8.72484 16.4391 8.36409 16.1974C7.64426 15.7148 6.68028 15.027 5.71236 14.2096C4.74856 13.3958 3.75666 12.4334 2.99936 11.3985C2.25138 10.3763 1.66667 9.19429 1.66667 7.95863C1.66667 6.62437 2.05616 5.36906 2.84842 4.43233ZM10 16.25L9.57975 16.9695L10 17.2147L10.4199 16.9698L10 16.25ZM10.0004 15.2734C10.1876 15.156 10.4293 15.0013 10.7097 14.8144C11.3967 14.3564 12.3086 13.7101 13.2165 12.9535C14.1288 12.1933 15.0124 11.3419 15.6615 10.4765C16.322 9.59571 16.6667 8.79704 16.6667 8.12496C16.6667 7.10036 16.3668 6.20054 15.8652 5.57492C15.3773 4.96647 14.6759 4.58329 13.75 4.58329C13.3614 4.58329 12.8187 4.82193 12.1897 5.29742C11.5889 5.75153 11.0301 6.32903 10.6325 6.79253L10 7.52988L9.36751 6.79253C8.96992 6.32903 8.41109 5.75153 7.81037 5.29742C7.18137 4.82193 6.6386 4.58329 6.25 4.58329C5.29864 4.58329 4.59734 4.94538 4.12096 5.50862C3.63177 6.08702 3.33334 6.93604 3.33334 7.95863C3.33334 8.68113 3.68613 9.51463 4.3444 10.4142C4.99335 11.3011 5.87645 12.1668 6.78765 12.9362C7.69473 13.7022 8.60576 14.3529 9.29217 14.813C9.57217 15.0007 9.8135 15.1559 10.0004 15.2734Z" fill="#FF5C60"/>
</svg>
