<svg width="25" height="24" viewBox="0 0 25 24" fill="none" xmlns="http://www.w3.org/2000/svg">
<path d="M10.3784 9.46756V8.54289C10.0576 8.49732 9.73382 8.47387 9.40979 8.47229C5.44584 8.47229 2.22084 11.6978 2.22084 15.6618C2.22084 18.0933 3.43608 20.2458 5.28989 21.5475C4.04857 20.22 3.35836 18.4703 3.35942 16.6528C3.35942 12.7452 6.49274 9.55871 10.3784 9.46756Z" fill="#00F2EA"/>
<path d="M10.5481 19.9358C12.3168 19.9358 13.7594 18.5288 13.8253 16.7753L13.8313 1.12264H16.6909C16.6298 0.795718 16.599 0.46405 16.5987 0.131592H12.693L12.6864 15.7848C12.6214 17.5377 11.178 18.9442 9.40978 18.9442C8.87896 18.9445 8.35603 18.8151 7.88659 18.5672C8.50172 19.4255 9.49224 19.9347 10.5481 19.9358ZM22.0324 6.43591V5.56604C20.9815 5.5671 19.9531 5.26125 19.0735 4.68643C19.8448 5.57447 20.883 6.18828 22.0329 6.43591" fill="#00F2EA"/>
<path d="M19.0735 4.68561C18.2115 3.6993 17.7365 2.43349 17.737 1.12341H16.6907C16.9644 2.58654 17.8256 3.87396 19.0735 4.68561ZM9.40979 12.378C7.59734 12.3801 6.12867 13.8488 6.12656 15.6612C6.12762 16.8815 6.80518 18.0005 7.88606 18.5675C7.48221 18.0105 7.26488 17.3406 7.26488 16.6528C7.26672 14.8403 8.73539 13.3712 10.5481 13.369C10.8864 13.369 11.2106 13.4249 11.5168 13.521V9.53366C11.1959 9.48808 10.8721 9.46463 10.5481 9.46305C10.4912 9.46305 10.4351 9.46622 10.3787 9.46727V12.53C10.0652 12.4304 9.73856 12.379 9.40979 12.378Z" fill="#FF004F"/>
<path d="M22.0324 6.43597V9.47156C20.0068 9.47156 18.1309 8.82377 16.5985 7.72418V15.6616C16.5985 19.6255 13.374 22.8505 9.41005 22.8505C7.87816 22.8505 6.45771 22.3671 5.29015 21.5473C6.64712 23.0107 8.55256 23.8421 10.5481 23.8415C14.512 23.8415 17.737 20.6165 17.737 16.6531V8.71576C19.32 9.85407 21.2213 10.4655 23.171 10.4631V6.55636C22.78 6.55636 22.3999 6.51395 22.0321 6.43518" fill="#FF004F"/>
<path d="M16.5982 15.6612V7.72384C18.1812 8.86242 20.0824 9.47359 22.0321 9.47122V6.43589C20.8825 6.188 19.8443 5.57393 19.0732 4.68561C17.8253 3.87396 16.9641 2.58654 16.6904 1.12341H13.8311L13.825 16.7761C13.7594 18.529 12.3166 19.936 10.5478 19.936C9.49225 19.935 8.50146 19.4255 7.88659 18.5677C6.80571 18.0011 6.12789 16.882 6.12657 15.6615C6.12868 13.849 7.59734 12.3804 9.40979 12.3783C9.74752 12.3783 10.0718 12.4336 10.3784 12.5303V9.46753C6.49275 9.55868 3.35942 12.7452 3.35942 16.6528C3.35942 18.5424 4.09362 20.2627 5.28989 21.5475C6.49591 22.3965 7.93507 22.8515 9.40979 22.8502C13.374 22.8502 16.5982 19.6252 16.5982 15.6612Z" fill="black"/>
</svg>
