<svg width="25" height="24" viewBox="0 0 25 24" fill="none" xmlns="http://www.w3.org/2000/svg">
<g clip-path="url(#clip0_2032_7001)">
<path d="M24.4792 7.09897C24.4215 5.8371 24.221 4.9754 23.9281 4.22144C23.6304 3.43034 23.1639 2.71379 22.5608 2.12158C21.9689 1.51857 21.2521 1.0515 20.461 0.753812C19.707 0.461133 18.8453 0.26092 17.5835 0.203491C16.3192 0.145798 15.9154 0.131836 12.6959 0.131836C9.47644 0.131836 9.07259 0.145798 7.80835 0.203228C6.54648 0.26092 5.68478 0.461396 4.93082 0.754339C4.13972 1.05202 3.42317 1.51857 2.83096 2.12158C2.22795 2.71352 1.76088 3.43007 1.46319 4.22118C1.17051 4.9754 0.970301 5.8371 0.912872 7.0987C0.854916 8.3632 0.841217 8.76705 0.841217 11.9865C0.841217 15.2063 0.854916 15.6101 0.912872 16.8743C0.970301 18.1359 1.17078 18.9979 1.46398 19.7519C1.76167 20.5427 2.22822 21.2595 2.83122 21.8515C3.42317 22.4545 4.13998 22.9213 4.93108 23.2187C5.68504 23.5119 6.54675 23.7121 7.80861 23.7698C9.07285 23.8275 9.4767 23.8412 12.6962 23.8412C15.9156 23.8412 16.3195 23.8278 17.5837 23.7698C18.8456 23.7121 19.7073 23.5119 20.4613 23.2187C22.0537 22.6031 23.3124 21.3441 23.9281 19.7519C24.2213 18.9976 24.4215 18.1359 24.4792 16.8743C24.5369 15.6098 24.5506 15.206 24.5506 11.9865C24.5506 8.76705 24.5369 8.3632 24.4792 7.09897ZM22.3454 16.7771C22.2927 17.9331 22.0996 18.5606 21.9373 18.9784C21.5384 20.0124 20.7213 20.8293 19.6875 21.2282C19.27 21.3905 18.6422 21.5836 17.4863 21.6362C16.2365 21.6934 15.8614 21.7053 12.6959 21.7053C9.53018 21.7053 9.1553 21.6934 7.90556 21.6362C6.74986 21.5836 6.12209 21.3905 5.70427 21.2282C5.18952 21.038 4.72376 20.735 4.34125 20.3412C3.94741 19.9587 3.64446 19.4932 3.45425 18.9782C3.29198 18.5606 3.09888 17.9328 3.04619 16.7769C2.98929 15.5269 2.97717 15.152 2.97717 11.9865C2.97717 8.82106 2.98929 8.44619 3.04619 7.19618C3.09914 6.04021 3.29198 5.4127 3.45425 4.99489C3.64446 4.47987 3.94741 4.01411 4.34125 3.6316C4.72376 3.23776 5.18952 2.93481 5.70454 2.74487C6.12209 2.58233 6.74986 2.3895 7.90582 2.33654C9.15557 2.27991 9.53044 2.26779 12.6959 2.26779C15.8614 2.26779 16.236 2.27991 17.486 2.33707C18.642 2.38976 19.2695 2.58286 19.6873 2.74514C20.202 2.93534 20.6678 3.23829 21.0503 3.63187C21.4441 4.01438 21.7471 4.48014 21.937 4.99516C22.0996 5.4127 22.2927 6.04048 22.3454 7.19644C22.4023 8.44645 22.4144 8.82132 22.4144 11.9868C22.4144 15.1523 22.4025 15.5269 22.3454 16.7771Z" fill="url(#paint0_linear_2032_7001)"/>
<path d="M12.6956 5.89905C9.33365 5.89905 6.60813 8.62457 6.60813 11.9866C6.60813 15.3486 9.33365 18.0741 12.6956 18.0741C16.0579 18.0741 18.7832 15.3486 18.7832 11.9866C18.7832 8.62457 16.0579 5.89905 12.6956 5.89905ZM12.6956 15.9381C10.5136 15.9379 8.74434 14.1689 8.74434 11.9866C8.74434 9.80425 10.5133 8.035 12.6959 8.035C14.8782 8.03526 16.6475 9.80425 16.6475 11.9866C16.6475 14.1689 14.8782 15.9381 12.6956 15.9381Z" fill="url(#paint1_linear_2032_7001)"/>
<path d="M20.4465 5.65852C20.4465 6.44409 19.8095 7.08109 19.0239 7.08109C18.2381 7.08109 17.6014 6.44409 17.6014 5.65852C17.6014 4.87269 18.2384 4.23596 19.0239 4.23596C19.8095 4.23596 20.4465 4.87295 20.4465 5.65852Z" fill="url(#paint2_linear_2032_7001)"/>
</g>
<defs>
<linearGradient id="paint0_linear_2032_7001" x1="2.83091" y1="21.8514" x2="22.5609" y2="2.12145" gradientUnits="userSpaceOnUse">
<stop stop-color="#FFD600"/>
<stop offset="0.5" stop-color="#FF0100"/>
<stop offset="1" stop-color="#D800B9"/>
</linearGradient>
<linearGradient id="paint1_linear_2032_7001" x1="8.39128" y1="16.2911" x2="17.0003" y2="7.68207" gradientUnits="userSpaceOnUse">
<stop stop-color="#FF6400"/>
<stop offset="0.5" stop-color="#FF0100"/>
<stop offset="1" stop-color="#FD0056"/>
</linearGradient>
<linearGradient id="paint2_linear_2032_7001" x1="18.0179" y1="6.66449" x2="20.0298" y2="4.65261" gradientUnits="userSpaceOnUse">
<stop stop-color="#F30072"/>
<stop offset="1" stop-color="#E50097"/>
</linearGradient>
<clipPath id="clip0_2032_7001">
<rect width="24" height="24" fill="white" transform="translate(0.709351)"/>
</clipPath>
</defs>
</svg>
