<svg width="20" height="20" viewBox="0 0 20 20" fill="none" xmlns="http://www.w3.org/2000/svg">
<path d="M5 1.66663L2.5 4.99996V16.6666C2.5 17.1087 2.67559 17.5326 2.98816 17.8451C3.30072 18.1577 3.72464 18.3333 4.16667 18.3333H15.8333C16.2754 18.3333 16.6993 18.1577 17.0118 17.8451C17.3244 17.5326 17.5 17.1087 17.5 16.6666V4.99996L15 1.66663H5Z" stroke="url(#paint0_linear_2032_6984)" stroke-width="1.5" stroke-linecap="round" stroke-linejoin="round"/>
<path d="M2.5 5H17.5" stroke="url(#paint1_linear_2032_6984)" stroke-width="1.5" stroke-linecap="round" stroke-linejoin="round"/>
<path d="M13.3333 8.33337C13.3333 9.21743 12.9821 10.0653 12.357 10.6904C11.7319 11.3155 10.8841 11.6667 10 11.6667C9.11595 11.6667 8.2681 11.3155 7.64298 10.6904C7.01786 10.0653 6.66667 9.21743 6.66667 8.33337" stroke="url(#paint2_linear_2032_6984)" stroke-width="1.5" stroke-linecap="round" stroke-linejoin="round"/>
<defs>
<linearGradient id="paint0_linear_2032_6984" x1="10" y1="1.66663" x2="10" y2="18.3333" gradientUnits="userSpaceOnUse">
<stop stop-color="#467D33"/>
<stop offset="1" stop-color="#20786D"/>
</linearGradient>
<linearGradient id="paint1_linear_2032_6984" x1="10" y1="5" x2="10" y2="6" gradientUnits="userSpaceOnUse">
<stop stop-color="#467D33"/>
<stop offset="1" stop-color="#20786D"/>
</linearGradient>
<linearGradient id="paint2_linear_2032_6984" x1="10" y1="8.33337" x2="10" y2="11.6667" gradientUnits="userSpaceOnUse">
<stop stop-color="#467D33"/>
<stop offset="1" stop-color="#20786D"/>
</linearGradient>
</defs>
</svg>
